<?xml version="1.0" standalone="no"?>
<!DOCTYPE svg PUBLIC "-//W3C//DTD SVG 20010904//EN"
 "http://www.w3.org/TR/2001/REC-SVG-20010904/DTD/svg10.dtd">
<svg version="1.0" xmlns="http://www.w3.org/2000/svg"
 width="800.000000pt" height="800.000000pt" viewBox="0 0 800.000000 800.000000"
 preserveAspectRatio="xMidYMid meet">
<metadata>
Created by potrace 1.11, written by Peter Selinger 2001-2013
</metadata>
<g transform="translate(0.000000,800.000000) scale(0.100000,-0.100000)"
fill="#000000" stroke="none">
<path d="M0 4000 l0 -4000 4000 0 4000 0 0 4000 0 4000 -4000 0 -4000 0 0
-4000z m4740 3625 c36 -9 110 -38 165 -65 112 -54 209 -135 291 -243 69 -90
140 -247 174 -379 53 -211 55 -254 55 -1133 l0 -810 -1394 -3 c-1109 -2 -1396
0 -1403 10 -4 7 -8 554 -8 1216 l0 1202 360 0 360 0 0 -750 0 -750 159 0 159
0 5 448 c4 482 9 531 64 706 72 227 208 400 389 489 83 41 123 55 218 73 91
17 316 11 406 -11z m687 -3367 l-2 -542 -505 -231 -505 -232 -3 -121 -3 -122
508 -2 508 -3 3 -457 2 -458 -510 0 -511 0 3 -127 3 -127 505 -231 505 -232 3
-541 c1 -298 0 -542 -2 -542 -2 0 -335 169 -740 376 l-736 376 -32 -20 c-18
-10 -82 -45 -143 -77 -60 -32 -157 -84 -215 -115 -58 -31 -152 -82 -210 -113
-58 -31 -242 -130 -410 -220 -168 -90 -308 -161 -313 -158 -4 4 -6 225 -5 490
l3 483 523 250 522 251 0 138 0 139 -525 0 -525 0 2 458 3 457 523 3 523 2 -3
131 -3 130 -520 253 -520 253 -3 491 c-1 271 -1 492 1 492 2 0 302 -159 667
-354 l663 -354 416 212 c228 116 557 283 731 372 173 89 318 162 322 163 4 0
6 -243 5 -541z"/>
<path d="M4445 6686 c-45 -19 -92 -79 -110 -138 -12 -41 -15 -109 -15 -340 l0
-288 220 0 220 0 0 28 c3 274 -2 554 -9 578 -22 76 -69 132 -133 158 -45 19
-132 20 -173 2z"/>
</g>
</svg>
