<svg version="1.0" xmlns="http://www.w3.org/2000/svg" width="1066.667" height="1066.667" viewBox="0 0 800 800"><path d="M0 400v400h800V0H0v400zM474 37.5c3.6.9 11 3.8 16.5 6.5 11.2 5.4 20.9 13.5 29.1 24.3 6.9 9 14 24.7 17.4 37.9 5.3 21.1 5.5 25.4 5.5 113.3v81l-139.4.3c-110.9.2-139.6 0-140.3-1-.4-.7-.8-55.4-.8-121.6V58h72v150h31.8l.5-44.8c.4-48.2.9-53.1 6.4-70.6 7.2-22.7 20.8-40 38.9-48.9 8.3-4.1 12.3-5.5 21.8-7.3 9.1-1.7 31.6-1.1 40.6 1.1zm68.7 336.7l-.2 54.2-50.5 23.1-50.5 23.2-.3 12.1-.3 12.2 50.8.2 50.8.3.3 45.7.2 45.8H440.9l.3 12.7.3 12.7 50.5 23.1 50.5 23.2.3 54.1c.1 29.8 0 54.2-.2 54.2s-33.5-16.9-74-37.6L395 695.8l-3.2 2c-1.8 1-8.2 4.5-14.3 7.7-6 3.2-15.7 8.4-21.5 11.5-5.8 3.1-15.2 8.2-21 11.3-5.8 3.1-24.2 13-41 22s-30.8 16.1-31.3 15.8c-.4-.4-.6-22.5-.5-49l.3-48.3 52.3-25 52.2-25.1V591H262l.2-45.8.3-45.7 52.3-.3 52.3-.2-.3-13.1-.3-13-52-25.3-52-25.3-.3-49.1c-.1-27.1-.1-49.2.1-49.2s30.2 15.9 66.7 35.4l66.3 35.4 41.6-21.2c22.8-11.6 55.7-28.3 73.1-37.2 17.3-8.9 31.8-16.2 32.2-16.3.4 0 .6 24.3.5 54.1z"/><path d="M444.5 131.4c-4.5 1.9-9.2 7.9-11 13.8-1.2 4.1-1.5 10.9-1.5 34V208h44v-2.8c.3-27.4-.2-55.4-.9-57.8-2.2-7.6-6.9-13.2-13.3-15.8-4.5-1.9-13.2-2-17.3-.2z"/></svg>