<svg xmlns="http://www.w3.org/2000/svg" version="1.2" baseProfile="tiny" width="200" height="43"><path d="M19.162 40.398c-3.806 0-7.358-.53-10.65-1.576C5.219 37.77 2.383 36.195 0 34.102l6.67-7.95c2.028 1.563 4.166 2.684 6.404 3.359 2.242.676 4.468 1.015 6.674 1.015 1.141 0 1.956-.144 2.456-.425.502-.287.746-.679.746-1.174v-.107c0-.538-.368-.988-1.094-1.337-.726-.357-2.093-.728-4.085-1.118a70.167 70.167 0 01-6.002-1.499c-1.905-.564-3.576-1.297-5.017-2.188-1.442-.886-2.589-2.011-3.445-3.362-.854-1.354-1.281-3.01-1.281-4.965v-.107c0-1.78.346-3.437 1.043-4.965.688-1.53 1.704-2.867 3.039-4.002 1.335-1.14 2.993-2.027 4.97-2.672 1.967-.64 4.238-.96 6.804-.96 3.625 0 6.8.43 9.524 1.285a22.709 22.709 0 017.34 3.838l-6.083 8.435c-1.78-1.284-3.658-2.217-5.632-2.806-1.98-.588-3.831-.883-5.58-.883-.922 0-1.607.143-2.051.428-.453.285-.668.66-.668 1.121v.105c0 .502.334.93 1.013 1.287.68.354 1.994.729 3.948 1.12 2.386.425 4.555.942 6.517 1.543 1.953.611 3.64 1.382 5.041 2.327 1.406.942 2.495 2.067 3.257 3.388.764 1.317 1.148 2.92 1.148 4.803v.11c0 1.954-.39 3.72-1.177 5.282-.78 1.568-1.886 2.89-3.309 3.979-1.424 1.082-3.151 1.918-5.179 2.506-2.025.59-4.306.885-6.83.885z"/><path d="M45.955 12.903H34.959V2.343h34.488v10.56h-11v26.796H45.956V12.903zm43.132 7.212c1.496 0 2.672-.321 3.521-.96.854-.642 1.284-1.535 1.284-2.673v-.108c0-1.207-.43-2.108-1.284-2.69-.85-.588-2.011-.88-3.466-.88h-5.448v7.311h5.393zM71.203 2.342h18.258c3.345 0 6.093.384 8.245 1.149 2.156.763 3.886 1.806 5.204 3.123a11.373 11.373 0 012.567 3.838c.566 1.423.853 3.102.853 5.014v.114c0 2.737-.659 5.05-1.98 6.934-1.312 1.885-3.109 3.385-5.39 4.483l8.698 12.702H93.41l-7.047-10.674h-2.669V39.7h-12.49V2.342zM179.89 23.627l8.142 16.072H200L179.89 0l-20.108 39.699h11.971l8.137-16.072z"/><path d="M123.918 23.627l8.14 16.072h11.97L123.919 0l-20.1 39.699h11.966l8.134-16.072zm27.995-5.214l-8.146-16.07h-11.97l20.116 39.698 20.101-39.699h-11.962l-8.14 16.07z"/></svg>